:SAMPLES-PER-SECOND 30
:FRAME-RANGE 1-3549
:FULLY-SPECIFIED
:DEGREES
777
root  -34.1464 34.6147 8.6722 158.549 -63.7861 -152.899
RightUpLeg  -44.5553 11.2733 10.213
RightLeg  21.3477 2.4664 0.853661
RightFoot  -10.372 -0.186485 13.617
RightToes  1.218e-010 1.26228e-014 -6.01869e-014
Spine  15.7856 -5.54862 -12.0248
Spine1  8.8906 -8.09852 5.25441
HEad  10.6327 2.82453 3.91254
LeftShoulder1  2.02667 -5.92166 -15.4094
LeftArm  15.0377 -18.3788 -57.3445
LeftForeArm  17.6054 -19.3242 -5.79198
LeftHand  -0.190481 3.20748 9.57986
RightShoulder  0.761527 -0.867097 24.938
RightArm  -37.6571 -22.0425 55.4233
RightForeArm  82.9523 -3.93627 -1.38259
RightHand  0.069669 -7.11678 -6.73615
LeftUpLeg  -18.0692 6.34977 -0.998583
LeftLeg  57.4351 5.00294 8.9371
LeftFoot  -36.2637 0.353971 0.607822
LeftToes  -1.43952e-010 7.51141e-011 -1.22592e-011
778
root  -36.8859 34.2568 9.05825 159.149 -65.9087 -153.176
RightUpLeg  -45.2057 11.4133 11.8074
RightLeg  22.5277 -0.750075 -0.554713
RightFoot  -10.2186 -0.200066 13.2472
RightToes  1.218e-010 1.26228e-014 -6.01869e-014
Spine  14.9861 -6.60455 -11.1519
Spine1  8.86023 -9.13479 5.88625
HEad  11.3837 5.7028 2.46402
LeftShoulder1  2.00216 -5.99656 -14.9271
LeftArm  14.9833 -18.2249 -58.1921
LeftForeArm  21.391 -17.0046 -7.31839
LeftHand  -0.16419 3.59352 9.85023
RightShoulder  0.731352 -0.998495 25.4161
RightArm  -35.5608 -21.2941 57.9715
RightForeArm  85.0753 -4.10542 0.151499
RightHand  0.136723 -7.87047 -7.89729
LeftUpLeg  -16.0697 9.37005 -2.65853
LeftLeg  60.7261 1.17701 2.88947
LeftFoot  -32.2865 0.137272 -0.31139
LeftToes  -1.43952e-010 7.51141e-011 -1.22592e-011
779
root  -39.5818 33.6682 9.39707 157.465 -69.0689 -152.119
RightUpLeg  -45.8078 12.5142 10.6235
RightLeg  29.9826 3.07947 1.68818
RightFoot  -10.5285 -0.148207 10.7503
RightToes  1.218e-010 1.26228e-014 -6.01869e-014
Spine  14.8402 -7.23951 -9.94896
Spine1  9.36741 -9.99067 6.53311
HEad  11.5439 6.96401 1.87017
LeftShoulder1  2.10038 -6.57448 -14.6368
LeftArm  12.3391 -19.3129 -59.2852
LeftForeArm  27.1685 -13.4955 -9.42705
LeftHand  -0.184538 3.30309 9.66975
RightShoulder  0.729107 -1.0111 25.4948
RightArm  -34.9893 -21.2929 58.7156
RightForeArm  84.038 -4.23951 0.668719
RightHand  0.105328 -7.40996 -7.79687
LeftUpLeg  -15.7475 11.4791 -1.60235
LeftLeg  69.0253 -3.44304 -9.08648
LeftFoot  -21.6468 -0.236303 -4.05893
LeftToes  -1.43952e-010 7.51141e-011 -1.22592e-011
780
root  -41.8803 33.0548 9.70057 151.566 -71.3317 -147.676
RightUpLeg  -49.9894 16.4408 7.32245
RightLeg  40.9546 1.9755 1.54886
RightFoot  6.56907 -0.852835 5.69351
RightToes  1.218e-010 1.26228e-014 -6.01869e-014
Spine  16.0361 -6.74056 -7.36817
Spine1  9.94063 -9.81893 7.61157
HEad  12.3181 6.11444 2.60803
LeftShoulder1  2.1761 -7.3171 -13.7862
LeftArm  7.53977 -21.2948 -61.4785
LeftForeArm  34.7203 -8.72049 -11.3357
LeftHand  -0.147572 3.74555 9.52742
RightShoulder  0.804753 -0.764843 25.424
RightArm  -33.7829 -21.2446 57.9311
RightForeArm  82.1422 -4.43342 1.32086
RightHand  0.146933 -7.84739 -8.41372
LeftUpLeg  -17.562 11.1216 3.23205
LeftLeg  78.9517 -4.19866 -23.2883
LeftFoot  -10.0274 0.29503 -20.3357
LeftToes  -1.43952e-010 7.51141e-011 -1.22592e-011
781
root  -44.447 32.4725 10.0492 145.993 -72.3604 -144.555
RightUpLeg  -49.1329 15.9041 7.47652
RightLeg  52.8624 1.12562 1.20756
RightFoot  -3.11706 -0.327531 4.25735
RightToes  1.218e-010 1.26228e-014 -6.01869e-014
Spine  16.7576 -6.23929 -5.39273
Spine1  10.1367 -8.62465 6.61211
HEad  12.5153 4.88316 3.66814
LeftShoulder1  2.19875 -7.7651 -13.0974
LeftArm  2.44248 -23.2218 -62.3313
LeftForeArm  39.327 -4.86626 -11.7226
LeftHand  -0.0833632 4.54316 9.22105
RightShoulder  0.945191 -0.30345 25.2784
RightArm  -31.4931 -17.3187 56.5041
RightForeArm  83.666 -4.46405 1.89862
RightHand  0.211488 -8.02811 -10.5617
LeftUpLeg  -19.2428 9.52396 7.91716
LeftLeg  87.1577 -0.725685 -28.688
LeftFoot  -13.1269 -0.217318 -18.8115
LeftToes  -1.43952e-010 7.51141e-011 -1.22592e-011
782
root  -46.7796 32.4059 10.4484 142.364 -74.9688 -142.426
RightUpLeg  -46.4649 14.695 5.65074
RightLeg  59.2653 0.557454 0.525338
RightFoot  -10.3273 -0.113152 4.85665
RightToes  1.218e-010 1.26228e-014 -6.01869e-014
Spine  16.8832 -5.65212 -6.32198
Spine1  10.3984 -8.46202 7.25329
HEad  14.0251 3.03924 5.26865
LeftShoulder1  2.14085 -7.54499 -12.9533
LeftArm  1.55339 -25.3081 -61.8011
LeftForeArm  38.3575 -1.73702 -12.0852
LeftHand  -0.0854437 4.53745 9.47765
RightShoulder  1.0436 0.0707276 24.706
RightArm  -29.3005 -13.7292 55.1588
RightForeArm  84.4317 -4.53429 2.5183
RightHand  0.375088 -9.10951 -12.5813
LeftUpLeg  -24.6593 4.69559 10.7603
LeftLeg  91.3721 1.15814 -22.9137
LeftFoot  -13.6641 -0.258875 -16.6843
LeftToes  -1.43952e-010 7.51141e-011 -1.22592e-011
783
root  -48.9462 32.682 10.9096 140.947 -76.2349 -141.689
RightUpLeg  -42.4423 13.8768 4.26355
RightLeg  61.4624 0.752699 0.973249
RightFoot  -15.8537 0.115852 5.66619
RightToes  1.218e-010 1.26228e-014 -6.01869e-014
Spine  16.1838 -4.59865 -6.05518
Spine1  9.86152 -7.00473 5.765
HEad  15.0177 -0.298979 7.04237
LeftShoulder1  2.07375 -7.38054 -12.5952
LeftArm  0.173439 -26.787 -61.6095
LeftForeArm  38.2735 0.944371 -11.7201
LeftHand  -0.0367429 5.16329 9.39333
RightShoulder  1.12618 0.434246 23.89
RightArm  -27.2192 -11.2909 53.4441
RightForeArm  80.9502 -4.80501 3.22442
RightHand  0.691957 -10.3283 -16.7391
LeftUpLeg  -31.0158 1.4409 14.9224
LeftLeg  90.9163 0.674579 -17.9705
LeftFoot  -15.7583 -0.396222 -12.6718
LeftToes  -1.43952e-010 7.51141e-011 -1.22592e-011
784
root  -50.9618 33.1872 11.4432 145.451 -77.0725 -146.963
RightUpLeg  -37.8182 13.1918 2.02558
RightLeg  61.8131 1.37244 2.25051
RightFoot  -19.52 0.311175 6.19961
RightToes  1.218e-010 1.26228e-014 -6.01869e-014
Spine  15.9545 -3.3436 -7.21798
Spine1  8.9152 -5.48912 4.15724
HEad  16.0363 -3.34523 7.88997
LeftShoulder1  2.00127 -6.9419 -12.7318
LeftArm  -0.345946 -26.8324 -59.7744
LeftForeArm  38.1406 1.48601 -11.6355
LeftHand  -0.0846296 4.43245 8.258
RightShoulder  1.24251 1.00806 22.5335
RightArm  -26.3091 -8.18837 51.7088
RightForeArm  76.9323 -3.53923 3.52071
RightHand  0.915086 -10.9809 -19.256
LeftUpLeg  -35.6707 -0.396779 18.3103
LeftLeg  84.8203 -1.03062 -13.3763
LeftFoot  -16.159 -0.384963 -11.416
LeftToes  -1.43952e-010 7.51141e-011 -1.22592e-011
